<svg width="17" height="16" viewBox="0 0 17 16" fill="none" xmlns="http://www.w3.org/2000/svg">
<g id="briefcase">
<path id="Vector" fill-rule="evenodd" clip-rule="evenodd" d="M5.3001 3.00078C5.3001 2.4173 5.53188 1.85773 5.94446 1.44515C6.35704 1.03257 6.91662 0.800781 7.5001 0.800781H9.5001C10.0836 0.800781 10.6432 1.03257 11.0557 1.44515C11.4683 1.85773 11.7001 2.4173 11.7001 3.00078V3.35518C12.1577 3.39918 12.6121 3.45278 13.0649 3.51518C14.1425 3.66638 14.9001 4.60078 14.9001 5.65678V8.43198C14.9001 9.33278 14.3449 10.1848 13.4361 10.464C11.8745 10.9432 10.2169 11.2008 8.5001 11.2008C6.7833 11.2008 5.1249 10.9432 3.5641 10.464C2.6553 10.1848 2.1001 9.33278 2.1001 8.43198V5.65678C2.1001 4.59998 2.8577 3.66558 3.9353 3.51598C4.38906 3.45287 4.84409 3.39925 5.3001 3.35518V3.00078ZM10.5001 3.00078V3.26078C9.16797 3.18062 7.83223 3.18062 6.5001 3.26078V3.00078C6.5001 2.44878 6.9481 2.00078 7.5001 2.00078H9.5001C10.0521 2.00078 10.5001 2.44878 10.5001 3.00078ZM8.5001 8.00078C8.28792 8.00078 8.08444 8.08507 7.93441 8.2351C7.78438 8.38512 7.7001 8.58861 7.7001 8.80078V8.80878C7.7001 9.02095 7.78438 9.22444 7.93441 9.37447C8.08444 9.5245 8.28792 9.60878 8.5001 9.60878H8.5081C8.72027 9.60878 8.92375 9.5245 9.07378 9.37447C9.22381 9.22444 9.3081 9.02095 9.3081 8.80878V8.80078C9.3081 8.58861 9.22381 8.38512 9.07378 8.2351C8.92375 8.08507 8.72027 8.00078 8.5081 8.00078H8.5001Z" fill="#94A3B8"/>
<path id="Vector_2" d="M2.8999 12.0433V11.4961C3.0007 11.5385 3.1039 11.5761 3.2119 11.6097C4.8855 12.1233 6.6623 12.3993 8.4999 12.3993C10.3375 12.3993 12.1143 12.1233 13.7879 11.6097C13.8959 11.5769 13.9991 11.5385 14.0999 11.4961V12.0433C14.0999 13.1209 13.3119 14.0673 12.2095 14.1921C9.74422 14.4696 7.25558 14.4696 4.7903 14.1921C3.6879 14.0673 2.8999 13.1209 2.8999 12.0433Z" fill="#64748B"/>
</g>
</svg>
