<svg width="108" height="113" viewBox="0 0 108 113" fill="none" xmlns="http://www.w3.org/2000/svg">
<g id="Vector">
<path d="M43.3429 87.1036C45.6797 84.5716 49.1516 80.8563 51.505 78.3409C48.3376 78.484 37.7169 78.3464 34.8707 78.0272C21.0714 76.486 9.68101 66.9142 9.68101 52.6364C9.68101 38.3586 20.9829 27.2457 34.8707 27.2457C42.6396 27.2457 49.2291 30.4051 53.8196 35.4359L60.0603 29.3538C53.7034 22.6882 44.7549 18.4775 34.8707 18.4775C15.9217 18.4775 0.5 33.8066 0.5 52.6419C0.5 71.4772 16.8519 86.6797 35.7954 87.065C37.8332 87.1036 40.4524 87.0815 43.3429 87.1036Z" fill="url(#paint0_linear_2932_155411)"/>
<path d="M55.7356 80.0582C53.5206 82.425 51.3057 84.7863 49.0962 87.1531C58.6095 87.2357 69.1527 87.3072 73.1341 87.0595L74.3745 78.7372C72.0875 80.9554 64.0915 80.7848 55.7356 80.0582Z" fill="url(#paint1_linear_2932_155411)"/>
<path d="M82.6695 31.3903H81.49V31.038L102.56 2.72457L86.6675 11.4982L66.1847 39.3438H78.1897C89.4916 39.3438 98.1964 47.4185 98.3182 58.5314C98.3182 69.5287 90.1948 78.0712 79.1311 78.1868C71.5283 78.1868 72.2038 78.3299 57.3304 78.3409C54.689 81.1701 52.0366 83.9937 49.3953 86.8228C64.4459 87.3457 79.0148 86.9604 79.0148 86.9604C94.7853 86.9604 107.616 74.0917 107.499 58.2947C107.388 44.3802 96.5573 32.4416 82.6695 31.3903Z" fill="url(#paint2_linear_2932_155411)"/>
<path d="M83.8822 8.77365H54.9271V0H99.7745" fill="url(#paint3_linear_2932_155411)"/>
<path d="M15.1242 112.711V99.1411H16.6559V112.711H15.1242Z" fill="url(#paint4_linear_2932_155411)"/>
<path d="M20.0662 112.711V99.1218H21.6949L28.1709 109.261C28.423 109.646 28.6169 110.089 28.8302 110.494H28.8689V99.1604H30.4007V112.711H28.6944L22.1215 102.418C21.9276 102.109 21.7531 101.782 21.6173 101.435H21.5786V112.711H20.0662Z" fill="url(#paint5_linear_2932_155411)"/>
<path d="M37.4193 113C34.9181 113 32.8628 111.246 32.8628 109.068H34.3752C34.3752 110.456 35.7712 111.535 37.4387 111.535C39.2031 111.535 40.5022 110.436 40.5022 109.126C40.5022 107.314 39.2031 106.928 37.303 106.369C35.5192 105.849 33.27 105.251 33.27 102.591C33.27 100.51 35.2477 98.8327 37.7102 98.8327C40.1726 98.8327 42.1115 100.529 42.1115 102.611H40.5992C40.5992 101.261 39.3389 100.259 37.6908 100.259C36.0427 100.259 34.8212 101.261 34.8212 102.514C34.8212 103.96 35.8682 104.403 37.7295 104.943C39.5909 105.483 42.0146 106.061 42.0146 109.049C42.0146 111.284 39.9593 113 37.4193 113Z" fill="url(#paint6_linear_2932_155411)"/>
<path d="M44.6247 112.711V99.1218H53.253V100.548H46.1371V105.194H52.1478V106.62H46.1371V111.284H53.253V112.711H44.6247Z" fill="url(#paint7_linear_2932_155411)"/>
<path d="M57.7961 112.73V100.529H54.2285V99.1218H62.8567V100.529H59.3279V112.73H57.7961Z" fill="url(#paint8_linear_2932_155411)"/>
<path d="M68.4157 113C65.9145 113 63.8592 111.246 63.8592 109.068H65.3716C65.3716 110.456 66.7676 111.535 68.4351 111.535C70.1995 111.535 71.4986 110.436 71.4986 109.126C71.4986 107.314 70.1995 106.928 68.2994 106.369C66.5156 105.849 64.2664 105.251 64.2664 102.591C64.2664 100.51 66.2441 98.8327 68.7065 98.8327C71.169 98.8327 73.1079 100.529 73.1079 102.611H71.5956C71.5956 101.261 70.3352 100.259 68.6871 100.259C67.0391 100.259 65.8175 101.261 65.8175 102.514C65.8175 103.96 66.8646 104.403 68.7259 104.943C70.5873 105.483 73.011 106.061 73.011 109.049C73.011 111.284 70.9557 113 68.4157 113Z" fill="url(#paint9_linear_2932_155411)"/>
<path d="M75.5048 112.865C74.9813 112.865 74.5547 112.441 74.5547 111.921C74.5547 111.4 74.9813 110.976 75.5048 110.976C76.0283 110.976 76.4548 111.4 76.4548 111.921C76.4548 112.441 76.0283 112.865 75.5048 112.865Z" fill="url(#paint10_linear_2932_155411)"/>
<path d="M77.3475 112.711L82.1948 99.1218H84.0756L88.9423 112.711H87.3136L86.4411 110.263H79.8487L78.9762 112.711H77.3475ZM80.3335 108.837H85.9176L83.3776 101.608C83.2806 101.338 83.2031 101.088 83.1255 100.818H83.0868C83.0286 101.088 82.951 101.338 82.8541 101.608L80.3335 108.837Z" fill="url(#paint11_linear_2932_155411)"/>
<path d="M90.8826 112.711V99.1411H92.4144V112.711H90.8826Z" fill="url(#paint12_linear_2932_155411)"/>
</g>
<defs>
<linearGradient id="paint0_linear_2932_155411" x1="53.7681" y1="92.5923" x2="53.7681" y2="119.177" gradientUnits="userSpaceOnUse">
<stop stop-color="#39775F"/>
<stop offset="1" stop-color="#3A9B8C"/>
</linearGradient>
<linearGradient id="paint1_linear_2932_155411" x1="53.7681" y1="92.5923" x2="53.7681" y2="119.177" gradientUnits="userSpaceOnUse">
<stop stop-color="#39775F"/>
<stop offset="1" stop-color="#3A9B8C"/>
</linearGradient>
<linearGradient id="paint2_linear_2932_155411" x1="53.7681" y1="92.5923" x2="53.7681" y2="119.177" gradientUnits="userSpaceOnUse">
<stop stop-color="#39775F"/>
<stop offset="1" stop-color="#3A9B8C"/>
</linearGradient>
<linearGradient id="paint3_linear_2932_155411" x1="53.7681" y1="92.5923" x2="53.7681" y2="119.177" gradientUnits="userSpaceOnUse">
<stop stop-color="#39775F"/>
<stop offset="1" stop-color="#3A9B8C"/>
</linearGradient>
<linearGradient id="paint4_linear_2932_155411" x1="53.7681" y1="92.5923" x2="53.7681" y2="119.177" gradientUnits="userSpaceOnUse">
<stop stop-color="#39775F"/>
<stop offset="1" stop-color="#3A9B8C"/>
</linearGradient>
<linearGradient id="paint5_linear_2932_155411" x1="53.7681" y1="92.5923" x2="53.7681" y2="119.177" gradientUnits="userSpaceOnUse">
<stop stop-color="#39775F"/>
<stop offset="1" stop-color="#3A9B8C"/>
</linearGradient>
<linearGradient id="paint6_linear_2932_155411" x1="53.7681" y1="92.5923" x2="53.7681" y2="119.177" gradientUnits="userSpaceOnUse">
<stop stop-color="#39775F"/>
<stop offset="1" stop-color="#3A9B8C"/>
</linearGradient>
<linearGradient id="paint7_linear_2932_155411" x1="53.7681" y1="92.5923" x2="53.7681" y2="119.177" gradientUnits="userSpaceOnUse">
<stop stop-color="#39775F"/>
<stop offset="1" stop-color="#3A9B8C"/>
</linearGradient>
<linearGradient id="paint8_linear_2932_155411" x1="53.7681" y1="92.5923" x2="53.7681" y2="119.177" gradientUnits="userSpaceOnUse">
<stop stop-color="#39775F"/>
<stop offset="1" stop-color="#3A9B8C"/>
</linearGradient>
<linearGradient id="paint9_linear_2932_155411" x1="53.7681" y1="92.5923" x2="53.7681" y2="119.177" gradientUnits="userSpaceOnUse">
<stop stop-color="#39775F"/>
<stop offset="1" stop-color="#3A9B8C"/>
</linearGradient>
<linearGradient id="paint10_linear_2932_155411" x1="53.7681" y1="92.5923" x2="53.7681" y2="119.177" gradientUnits="userSpaceOnUse">
<stop stop-color="#39775F"/>
<stop offset="1" stop-color="#3A9B8C"/>
</linearGradient>
<linearGradient id="paint11_linear_2932_155411" x1="53.7681" y1="92.5923" x2="53.7681" y2="119.177" gradientUnits="userSpaceOnUse">
<stop stop-color="#39775F"/>
<stop offset="1" stop-color="#3A9B8C"/>
</linearGradient>
<linearGradient id="paint12_linear_2932_155411" x1="53.7681" y1="92.5923" x2="53.7681" y2="119.177" gradientUnits="userSpaceOnUse">
<stop stop-color="#39775F"/>
<stop offset="1" stop-color="#3A9B8C"/>
</linearGradient>
</defs>
</svg>
