<svg width="24" height="24" viewBox="0 0 24 24" fill="none" xmlns="http://www.w3.org/2000/svg">
<path d="M7.53599 6.26499C7.36538 6.10601 7.13972 6.01946 6.90656 6.02358C6.6734 6.02769 6.45094 6.12215 6.28604 6.28704C6.12115 6.45194 6.02669 6.6744 6.02258 6.90756C6.01847 7.14072 6.10501 7.36638 6.26399 7.53699L10.728 12.001L6.26399 16.465C6.17556 16.5474 6.10464 16.6467 6.05545 16.7571C6.00626 16.8675 5.97981 16.9867 5.97768 17.1076C5.97555 17.2284 5.99778 17.3484 6.04304 17.4605C6.08831 17.5726 6.15568 17.6744 6.24114 17.7598C6.32661 17.8453 6.42841 17.9127 6.54047 17.9579C6.65254 18.0032 6.77257 18.0254 6.89342 18.0233C7.01426 18.0212 7.13344 17.9947 7.24383 17.9455C7.35423 17.8963 7.45359 17.8254 7.53599 17.737L12 13.273L16.464 17.737C16.5464 17.8254 16.6457 17.8963 16.7561 17.9455C16.8665 17.9947 16.9857 18.0212 17.1066 18.0233C17.2274 18.0254 17.3474 18.0032 17.4595 17.9579C17.5716 17.9127 17.6734 17.8453 17.7588 17.7598C17.8443 17.6744 17.9117 17.5726 17.9569 17.4605C18.0022 17.3484 18.0244 17.2284 18.0223 17.1076C18.0202 16.9867 17.9937 16.8675 17.9445 16.7571C17.8953 16.6467 17.8244 16.5474 17.736 16.465L13.272 12.001L17.736 7.53699C17.895 7.36638 17.9815 7.14072 17.9774 6.90756C17.9733 6.6744 17.8788 6.45194 17.7139 6.28704C17.549 6.12215 17.3266 6.02769 17.0934 6.02358C16.8603 6.01946 16.6346 6.10601 16.464 6.26499L12 10.729L7.53599 6.26499Z" fill="#64748B"/>
</svg>
