<svg width="64" height="64" viewBox="0 0 64 64" fill="none" xmlns="http://www.w3.org/2000/svg">
<rect width="64" height="64" rx="4" fill="#E5E7EB"/>
<path d="M25.7001 23.6016C25.1431 23.6016 24.609 23.8228 24.2151 24.2166C23.8213 24.6105 23.6001 25.1446 23.6001 25.7016V29.004L23.7249 29.0016H40.2753C40.3173 29.0016 40.3593 29.0016 40.4001 29.004V28.1016C40.4001 27.5446 40.1788 27.0105 39.785 26.6166C39.3912 26.2228 38.857 26.0016 38.3001 26.0016H33.6969C33.6574 26.0016 33.6184 25.9939 33.5819 25.9789C33.5455 25.9639 33.5124 25.9418 33.4845 25.914L31.7877 24.2172C31.394 23.8233 30.8601 23.6018 30.3033 23.6016H25.7001ZM23.7249 30.8016C23.3962 30.8015 23.072 30.8785 22.7785 31.0266C22.485 31.1746 22.2304 31.3895 22.0351 31.6539C21.8398 31.9183 21.7093 32.2248 21.6541 32.5489C21.5989 32.8729 21.6205 33.2054 21.7173 33.5196L23.3793 38.9196C23.5114 39.3486 23.7775 39.724 24.1386 39.9907C24.4997 40.2574 24.9367 40.4014 25.3857 40.4016H38.6133C39.0624 40.4017 39.4997 40.2578 39.8611 39.9911C40.2224 39.7244 40.4887 39.3488 40.6209 38.9196L42.2817 33.5196C42.3784 33.2055 42.4 32.8731 42.3449 32.5492C42.2897 32.2252 42.1593 31.9187 41.9642 31.6544C41.769 31.39 41.5145 31.1751 41.2212 31.027C40.9279 30.8789 40.6039 30.8017 40.2753 30.8016H23.7249Z" fill="#64748B"/>
</svg>
