<svg width="25" height="24" viewBox="0 0 25 24" fill="none" xmlns="http://www.w3.org/2000/svg">
<g clip-path="url(#clip0_3364_120920)">
<g clip-path="url(#clip1_3364_120920)">
<path d="M20.5 20C21.2956 20 22.0587 19.6839 22.6213 19.1213C23.1839 18.5587 23.5 17.7956 23.5 17V12.5C23.5 11.7044 23.1839 10.9413 22.6213 10.3787C22.0587 9.81607 21.2956 9.5 20.5 9.5H5.5C4.70435 9.5 3.94129 9.81607 3.37868 10.3787C2.81607 10.9413 2.5 11.7044 2.5 12.5V17C2.5 17.7956 2.81607 18.5587 3.37868 19.1213C3.94129 19.6839 4.70435 20 5.5 20H20.5ZM2.5 9.146V5C2.5 4.20435 2.81607 3.44129 3.37868 2.87868C3.94129 2.31607 4.70435 2 5.5 2H10.879C11.4754 2.00026 12.0473 2.23729 12.469 2.659L14.591 4.78C14.731 4.921 14.922 5 15.121 5H20.5C21.2956 5 22.0587 5.31607 22.6213 5.87868C23.1839 6.44129 23.5 7.20435 23.5 8V9.146C22.6758 8.40664 21.6072 7.99842 20.5 8H5.5C4.39279 7.99842 3.32417 8.40664 2.5 9.146Z" fill="#64748B"/>
<mask id="path-2-inside-1_3364_120920" fill="white">
<path fill-rule="evenodd" clip-rule="evenodd" d="M14.8784 12.046C14.9387 12.0861 14.9805 12.1486 14.9947 12.2196C15.0089 12.2906 14.9943 12.3643 14.9542 12.4246L11.6777 17.3393C11.6553 17.3728 11.6257 17.401 11.5911 17.4218C11.5564 17.4426 11.5176 17.4554 11.4775 17.4594C11.4373 17.4633 11.3967 17.4583 11.3587 17.4448C11.3207 17.4312 11.2861 17.4093 11.2576 17.3808L9.07328 15.1965C9.02505 15.1447 8.99879 15.0762 9.00004 15.0055C9.00129 14.9348 9.02995 14.8673 9.07997 14.8173C9.13 14.7672 9.19749 14.7386 9.26822 14.7373C9.33896 14.7361 9.40742 14.7623 9.45917 14.8106L11.4079 16.7593L14.4998 12.1213C14.54 12.0611 14.6025 12.0194 14.6735 12.0053C14.7445 11.9911 14.8182 12.0058 14.8784 12.046Z"/>
</mask>
<path fill-rule="evenodd" clip-rule="evenodd" d="M14.8784 12.046C14.9387 12.0861 14.9805 12.1486 14.9947 12.2196C15.0089 12.2906 14.9943 12.3643 14.9542 12.4246L11.6777 17.3393C11.6553 17.3728 11.6257 17.401 11.5911 17.4218C11.5564 17.4426 11.5176 17.4554 11.4775 17.4594C11.4373 17.4633 11.3967 17.4583 11.3587 17.4448C11.3207 17.4312 11.2861 17.4093 11.2576 17.3808L9.07328 15.1965C9.02505 15.1447 8.99879 15.0762 9.00004 15.0055C9.00129 14.9348 9.02995 14.8673 9.07997 14.8173C9.13 14.7672 9.19749 14.7386 9.26822 14.7373C9.33896 14.7361 9.40742 14.7623 9.45917 14.8106L11.4079 16.7593L14.4998 12.1213C14.54 12.0611 14.6025 12.0194 14.6735 12.0053C14.7445 11.9911 14.8182 12.0058 14.8784 12.046Z" fill="#EEEEEE"/>
<path d="M14.8784 12.046L13.7679 13.7093L13.7689 13.71L14.8784 12.046ZM14.9542 12.4246L16.6183 13.534L16.6183 13.5339L14.9542 12.4246ZM11.6777 17.3393L13.3411 18.4497L13.3418 18.4487L11.6777 17.3393ZM11.2576 17.3808L9.84337 18.795L9.84363 18.7952L11.2576 17.3808ZM9.07328 15.1965L7.61006 16.5599L7.63411 16.5857L7.65907 16.6107L9.07328 15.1965ZM9.45917 14.8106L10.8734 13.3963L10.8484 13.3714L10.8226 13.3473L9.45917 14.8106ZM11.4079 16.7593L9.99372 18.1735L11.7188 19.8986L13.0721 17.8687L11.4079 16.7593ZM14.4998 12.1213L12.837 11.01L12.8357 11.0119L14.4998 12.1213ZM13.7689 13.71C13.3879 13.4559 13.1234 13.0609 13.0335 12.6118L16.9559 11.8274C16.8376 11.2363 16.4895 10.7163 15.9879 10.3819L13.7689 13.71ZM13.0335 12.6118C12.9437 12.1627 13.036 11.6964 13.29 11.3153L16.6183 13.5339C16.9527 13.0323 17.0741 12.4184 16.9559 11.8274L13.0335 12.6118ZM13.2901 11.3152L10.0136 16.2299L13.3418 18.4487L16.6183 13.534L13.2901 11.3152ZM10.0143 16.2288C10.1561 16.0164 10.3433 15.8381 10.5623 15.7067L12.6199 19.1369C12.9081 18.964 13.1544 18.7293 13.3411 18.4497L10.0143 16.2288ZM10.5623 15.7067C10.7813 15.5753 11.0267 15.4942 11.2808 15.4691L11.6741 19.4497C12.0086 19.4166 12.3316 19.3098 12.6199 19.1369L10.5623 15.7067ZM11.2808 15.4691C11.535 15.4439 11.7916 15.4755 12.032 15.5615L10.6854 19.328C11.0019 19.4412 11.3395 19.4827 11.6741 19.4497L11.2808 15.4691ZM12.032 15.5615C12.2725 15.6475 12.4909 15.7857 12.6715 15.9663L9.84363 18.7952C10.0814 19.0329 10.3689 19.2148 10.6854 19.328L12.032 15.5615ZM12.6718 15.9665L10.4875 13.7822L7.65907 16.6107L9.84337 18.795L12.6718 15.9665ZM10.5365 13.833C10.8416 14.1604 11.0076 14.5934 10.9997 15.0408L7.00035 14.9702C6.98996 15.5591 7.20855 16.129 7.61006 16.5599L10.5365 13.833ZM10.9997 15.0408C10.9918 15.4882 10.8106 15.9151 10.4942 16.2315L7.66576 13.403C7.2493 13.8195 7.01074 14.3813 7.00035 14.9702L10.9997 15.0408ZM10.4942 16.2315C10.1778 16.5479 9.75091 16.7291 9.3035 16.737L9.23294 12.7376C8.64406 12.748 8.08221 12.9866 7.66576 13.403L10.4942 16.2315ZM9.3035 16.737C8.8561 16.7449 8.4231 16.5788 8.09573 16.2738L10.8226 13.3473C10.3917 12.9458 9.82181 12.7272 9.23294 12.7376L9.3035 16.737ZM8.04496 16.2248L9.99372 18.1735L12.8221 15.3451L10.8734 13.3963L8.04496 16.2248ZM13.0721 17.8687L16.1639 13.2307L12.8357 11.0119L9.74382 15.65L13.0721 17.8687ZM16.1626 13.2327C15.9082 13.6133 15.513 13.8774 15.0639 13.9668L14.2831 10.0437C13.692 10.1614 13.1719 10.5089 12.837 11.01L16.1626 13.2327ZM15.0639 13.9668C14.6149 14.0562 14.1487 13.9635 13.7679 13.7093L15.989 10.3826C15.4877 10.048 14.8742 9.92609 14.2831 10.0437L15.0639 13.9668Z" fill="white" mask="url(#path-2-inside-1_3364_120920)"/>
</g>
</g>
<defs>
<clipPath id="clip0_3364_120920">
<rect width="24" height="24" fill="white" transform="translate(0.5)"/>
</clipPath>
<clipPath id="clip1_3364_120920">
<rect width="24" height="24" fill="white" transform="translate(1 -1)"/>
</clipPath>
</defs>
</svg>
