<svg width="46" height="47" viewBox="0 0 46 47" fill="none" xmlns="http://www.w3.org/2000/svg">
<g id="folder-open">
<path id="Vector" d="M10.9252 7.39844C9.85772 7.39844 8.83395 7.8225 8.07911 8.57733C7.32428 9.33217 6.90022 10.3559 6.90022 11.4234V17.753L7.13942 17.7484H38.861C38.9415 17.7484 39.022 17.7484 39.1002 17.753V16.0234C39.1002 14.9559 38.6762 13.9322 37.9213 13.1773C37.1665 12.4225 36.1427 11.9984 35.0752 11.9984H26.2524C26.1769 11.9986 26.102 11.9838 26.0322 11.955C25.9623 11.9262 25.8988 11.8839 25.8453 11.8305L22.5931 8.57834C21.8387 7.82338 20.8153 7.39897 19.748 7.39844H10.9252ZM7.13942 21.1984C6.50939 21.1983 5.88812 21.346 5.3256 21.6297C4.76308 21.9135 4.27502 22.3253 3.9007 22.8321C3.52638 23.3388 3.27625 23.9264 3.17045 24.5475C3.06464 25.1686 3.10611 25.8058 3.29152 26.4079L6.47702 36.7579C6.73023 37.5803 7.24029 38.2998 7.93239 38.811C8.62449 39.3222 9.46219 39.5982 10.3226 39.5984H35.6755C36.5363 39.5987 37.3746 39.3229 38.0671 38.8117C38.7597 38.3004 39.2701 37.5806 39.5234 36.7579L42.7066 26.4079C42.892 25.806 42.9335 25.169 42.8278 24.548C42.7221 23.9271 42.4722 23.3397 42.0981 22.833C41.7241 22.3263 41.2363 21.9144 40.6741 21.6305C40.1119 21.3466 39.4909 21.1986 38.861 21.1984H7.13942Z" fill="#64748B"/>
</g>
</svg>
