<svg width="46" height="47" viewBox="0 0 46 47" fill="none" xmlns="http://www.w3.org/2000/svg">
<g clip-path="url(#clip0_3364_120894)">
<path fill-rule="evenodd" clip-rule="evenodd" d="M41.4409 39.5659C40.3625 40.6442 38.9 41.25 37.375 41.25H8.625C7.10001 41.25 5.63747 40.6442 4.55914 39.5659C3.4808 38.4875 2.875 37.025 2.875 35.5V26.875C2.875 25.35 3.4808 23.8875 4.55914 22.8091C5.63747 21.7308 7.10001 21.125 8.625 21.125H37.375C38.9 21.125 40.3625 21.7308 41.4409 22.8091C42.5192 23.8875 43.125 25.35 43.125 26.875V35.5C43.125 37.025 42.5192 38.4875 41.4409 39.5659ZM2.875 12.5V20.4465C4.45466 19.0294 6.50285 18.247 8.625 18.25H37.375C39.4971 18.247 41.5453 19.0294 43.125 20.4465V18.25C43.125 16.725 42.5192 15.2625 41.4409 14.1841C40.3625 13.1058 38.9 12.5 37.375 12.5H27.0653C26.6838 12.5 26.3177 12.3486 26.0494 12.0783L21.9823 8.01308C21.174 7.2048 20.0778 6.7505 18.9347 6.75H8.625C7.10001 6.75 5.63747 7.3558 4.55914 8.43414C3.4808 9.51247 2.875 10.975 2.875 12.5ZM28.9903 26.4021C28.9642 26.2721 28.8876 26.1577 28.7771 26.0842C28.6667 26.0106 28.5316 25.9837 28.4015 26.0096C28.2713 26.0355 28.1567 26.112 28.083 26.2222L22.4145 34.7156L18.8418 31.1469C18.7469 31.0586 18.6214 31.0105 18.4917 31.0128C18.3621 31.0151 18.2383 31.0675 18.1466 31.1591C18.0549 31.2508 18.0024 31.3743 18.0001 31.5039C17.9978 31.6334 18.0459 31.7588 18.1343 31.8536L22.1389 35.8536C22.1913 35.9059 22.2546 35.9459 22.3243 35.9708C22.394 35.9957 22.4683 36.0048 22.542 35.9976C22.6157 35.9903 22.6868 35.9668 22.7503 35.9288C22.8138 35.8907 22.868 35.8391 22.9091 35.7776L28.9159 26.7775C28.9896 26.6672 29.0163 26.5321 28.9903 26.4021Z" fill="#64748B"/>
</g>
<defs>
<clipPath id="clip0_3364_120894">
<rect width="46" height="46" fill="white" transform="translate(0 0.5)"/>
</clipPath>
</defs>
</svg>
