<svg width="42" height="35" viewBox="0 0 42 35" fill="none" xmlns="http://www.w3.org/2000/svg">
<path fill-rule="evenodd" clip-rule="evenodd" d="M35.375 34.75C36.9 34.75 38.3625 34.1442 39.4409 33.0659C40.5192 31.9875 41.125 30.525 41.125 29V11.75C41.125 10.225 40.5192 8.76247 39.4409 7.68414C38.3625 6.6058 36.9 6 35.375 6H25.0653C24.6841 5.99966 24.3187 5.84799 24.0494 5.57833L19.9842 1.515C19.5839 1.1142 19.1085 0.796195 18.5853 0.579143C18.0621 0.362091 17.5012 0.250247 16.9347 0.25H6.625C5.10001 0.25 3.63747 0.855802 2.55914 1.93414C1.4808 3.01247 0.875 4.47501 0.875 6V29C0.875 30.525 1.4808 31.9875 2.55914 33.0659C3.63747 34.1442 5.10001 34.75 6.625 34.75H35.375ZM22.4375 14.625C22.4375 14.2438 22.286 13.8781 22.0165 13.6085C21.7469 13.339 21.3812 13.1875 21 13.1875C20.6188 13.1875 20.2531 13.339 19.9835 13.6085C19.714 13.8781 19.5625 14.2438 19.5625 14.625V18.9375H15.25C14.8688 18.9375 14.5031 19.089 14.2335 19.3585C13.964 19.6281 13.8125 19.9938 13.8125 20.375C13.8125 20.7562 13.964 21.1219 14.2335 21.3915C14.5031 21.661 14.8688 21.8125 15.25 21.8125H19.5625V26.125C19.5625 26.5062 19.714 26.8719 19.9835 27.1415C20.2531 27.4111 20.6188 27.5625 21 27.5625C21.3812 27.5625 21.7469 27.4111 22.0165 27.1415C22.286 26.8719 22.4375 26.5062 22.4375 26.125V21.8125H26.75C27.1312 21.8125 27.4969 21.661 27.7665 21.3915C28.036 21.1219 28.1875 20.7562 28.1875 20.375C28.1875 19.9938 28.036 19.6281 27.7665 19.3585C27.4969 19.089 27.1312 18.9375 26.75 18.9375H22.4375V14.625Z" fill="#64748B"/>
</svg>
