<svg width="16" height="16" viewBox="0 0 16 16" fill="none" xmlns="http://www.w3.org/2000/svg">
<path fill-rule="evenodd" clip-rule="evenodd" d="M14.4001 8.00156C14.4001 9.69895 13.7258 11.3268 12.5256 12.527C11.3253 13.7273 9.69748 14.4016 8.0001 14.4016C6.30271 14.4016 4.67485 13.7273 3.47461 12.527C2.27438 11.3268 1.6001 9.69895 1.6001 8.00156C1.6001 6.30418 2.27438 4.67631 3.47461 3.47608C4.67485 2.27585 6.30271 1.60156 8.0001 1.60156C9.69748 1.60156 11.3253 2.27585 12.5256 3.47608C13.7258 4.67631 14.4001 6.30418 14.4001 8.00156ZM10.0001 6.00156C10.0001 6.532 9.78938 7.0407 9.41431 7.41578C9.03924 7.79085 8.53053 8.00156 8.0001 8.00156C7.46966 8.00156 6.96096 7.79085 6.58588 7.41578C6.21081 7.0407 6.0001 6.532 6.0001 6.00156C6.0001 5.47113 6.21081 4.96242 6.58588 4.58735C6.96096 4.21228 7.46966 4.00156 8.0001 4.00156C8.53053 4.00156 9.03924 4.21228 9.41431 4.58735C9.78938 4.96242 10.0001 5.47113 10.0001 6.00156ZM8.0001 9.60156C7.25643 9.60088 6.52282 9.77329 5.8573 10.1051C5.19179 10.437 4.61264 10.9192 4.1657 11.5136C4.65229 12.0461 5.24464 12.4713 5.90487 12.762C6.56511 13.0526 7.27872 13.2023 8.0001 13.2016C8.72148 13.2023 9.43509 13.0526 10.0953 12.762C10.7556 12.4713 11.3479 12.0461 11.8345 11.5136C11.3876 10.9192 10.8084 10.437 10.1429 10.1051C9.47738 9.77329 8.74376 9.60088 8.0001 9.60156Z" fill="#94A3B8"/>
</svg>
