<svg width="16" height="16" viewBox="0 0 16 16" fill="none" xmlns="http://www.w3.org/2000/svg">
<path fill-rule="evenodd" clip-rule="evenodd" d="M8.0001 14.4016C9.69748 14.4016 11.3253 13.7273 12.5256 12.527C13.7258 11.3268 14.4001 9.69895 14.4001 8.00156C14.4001 6.30418 13.7258 4.67631 12.5256 3.47608C11.3253 2.27585 9.69748 1.60156 8.0001 1.60156C6.30271 1.60156 4.67485 2.27585 3.47461 3.47608C2.27438 4.67631 1.6001 6.30418 1.6001 8.00156C1.6001 9.69895 2.27438 11.3268 3.47461 12.527C4.67485 13.7273 6.30271 14.4016 8.0001 14.4016ZM8.6001 4.00156C8.6001 3.84243 8.53688 3.68982 8.42436 3.5773C8.31184 3.46478 8.15923 3.40156 8.0001 3.40156C7.84097 3.40156 7.68836 3.46478 7.57583 3.5773C7.46331 3.68982 7.4001 3.84243 7.4001 4.00156V8.00156C7.4001 8.33276 7.6689 8.60156 8.0001 8.60156H11.2001C11.3592 8.60156 11.5118 8.53835 11.6244 8.42583C11.7369 8.3133 11.8001 8.16069 11.8001 8.00156C11.8001 7.84243 11.7369 7.68982 11.6244 7.5773C11.5118 7.46478 11.3592 7.40156 11.2001 7.40156H8.6001V4.00156Z" fill="#94A3B8"/>
</svg>
